<svg width="128" height="128" viewBox="0 0 128 128" fill="none" xmlns="http://www.w3.org/2000/svg">
<path d="M104 42.6665H56C54.5333 42.6665 53.3333 43.8665 53.3333 45.3332V66.6665H21.3333V29.3332C21.3333 27.8665 20.1333 26.6665 18.6667 26.6665H10.6667C9.2 26.6665 8 27.8665 8 29.3332V98.6665C8 100.133 9.2 101.333 10.6667 101.333H18.6667C20.1333 101.333 21.3333 100.133 21.3333 98.6665V85.3332H106.667V98.6665C106.667 100.133 107.867 101.333 109.333 101.333H117.333C118.8 101.333 120 100.133 120 98.6665V58.6665C120 49.8398 112.827 42.6665 104 42.6665ZM53.3333 79.9998H18.6667C17.2 79.9998 16 81.1998 16 82.6665V95.9998H13.3333V31.9998H16V69.3332C16 70.7998 17.2 71.9998 18.6667 71.9998H53.3333V79.9998ZM114.667 95.9998H112V82.6665C112 81.1998 110.8 79.9998 109.333 79.9998H58.6667V47.9998H104C109.893 47.9998 114.667 52.7732 114.667 58.6665V95.9998Z" fill="black"/>
<path d="M24 50.6666C24 58.0266 29.9733 63.9999 37.3333 63.9999C44.6933 63.9999 50.6667 58.0266 50.6667 50.6666C50.6667 43.3066 44.6933 37.3333 37.3333 37.3333C29.9733 37.3333 24 43.3066 24 50.6666ZM45.3333 50.6666C45.3333 55.0666 41.7333 58.6666 37.3333 58.6666C32.9333 58.6666 29.3333 55.0666 29.3333 50.6666C29.3333 46.2666 32.9333 42.6666 37.3333 42.6666C41.7333 42.6666 45.3333 46.2666 45.3333 50.6666Z" fill="black"/>
</svg>
