<svg width="128" height="128" viewBox="0 0 128 128" fill="none" xmlns="http://www.w3.org/2000/svg">
<g clip-path="url(#clip0_35436_66)">
<rect width="128" height="128" rx="12" fill="white"/>
<rect x="2" y="2" width="124" height="124" rx="10" stroke="black" stroke-width="4"/>
<path d="M34.1187 45.4761C33.7244 45.8704 33.3429 46.2744 32.9728 46.6848C32.6872 47.0021 32.5394 47.4199 32.5619 47.8462C32.5844 48.2725 32.7753 48.6725 33.0927 48.958C33.41 49.2436 33.8278 49.3913 34.2541 49.3689C34.6805 49.3464 35.0804 49.1555 35.3659 48.8381C35.6975 48.4696 36.0419 48.1058 36.3975 47.7486C36.6903 47.4446 36.852 47.0378 36.8477 46.6159C36.8435 46.1939 36.6736 45.7904 36.3748 45.4925C36.076 45.1945 35.6721 45.0258 35.2501 45.0227C34.8281 45.0197 34.4218 45.1825 34.1187 45.4761ZM31.6628 54.1442C31.8439 53.7691 31.8726 53.3383 31.7429 52.9424C31.6132 52.5465 31.3353 52.2163 30.9673 52.021C30.5994 51.8256 30.17 51.7804 29.7695 51.8949C29.3689 52.0093 29.0283 52.2744 28.819 52.6346C22.6148 64.3364 24.7457 78.4957 34.1187 87.8703C34.2678 88.0203 34.4451 88.1393 34.6403 88.2205C34.8356 88.3017 35.045 88.3435 35.2565 88.3435C35.468 88.3435 35.6774 88.3017 35.8726 88.2205C36.0679 88.1393 36.2452 88.0203 36.3943 87.8703C36.5439 87.721 36.6626 87.5436 36.7435 87.3484C36.8245 87.1531 36.8662 86.9438 36.8662 86.7325C36.8662 86.5211 36.8245 86.3118 36.7435 86.1166C36.6626 85.9213 36.5439 85.744 36.3943 85.5946C28.0256 77.2275 26.1249 64.5874 31.6611 54.1442H31.6628Z" fill="black"/>
<path d="M111.279 24.9728L105.821 30.4318C105.026 31.224 103.949 31.6688 102.827 31.6688C101.705 31.6688 100.628 31.224 99.8327 30.4318C98.4346 29.035 96.5391 28.2503 94.5628 28.2503C92.5865 28.2503 90.691 29.035 89.2929 30.4318L85.6074 34.1172L79.553 28.0612C79.2453 27.7708 78.8382 27.609 78.4151 27.609C77.992 27.609 77.585 27.7708 77.2773 28.0612L71.1987 34.1398C57.2776 27.3241 40.7477 30.0133 29.7042 41.0569C15.5819 55.1807 15.5819 78.1626 29.7058 92.2865C36.7725 99.3533 46.0538 102.886 55.3335 102.886C64.6131 102.886 73.8831 99.3565 80.9435 92.2961C91.9854 81.2542 94.6779 64.7227 87.8605 50.8016L93.9392 44.723C94.0887 44.5737 94.2074 44.3963 94.2884 44.2011C94.3693 44.0058 94.411 43.7966 94.411 43.5852C94.411 43.3738 94.3693 43.1645 94.2884 42.9693C94.2074 42.7741 94.0887 42.5967 93.9392 42.4474L87.8847 36.3929L91.5702 32.7074C92.3653 31.9152 93.442 31.4704 94.5644 31.4704C95.6868 31.4704 96.7635 31.9152 97.5586 32.7074C98.9572 34.1035 100.852 34.8875 102.829 34.8875C104.805 34.8875 106.7 34.1035 108.098 32.7074L113.556 27.2484C113.705 27.099 113.824 26.9216 113.905 26.7264C113.986 26.5312 114.027 26.3219 114.027 26.1106C114.027 25.8993 113.986 25.69 113.905 25.4948C113.824 25.2996 113.705 25.1222 113.556 24.9728C113.406 24.8233 113.229 24.7048 113.034 24.624C112.839 24.5431 112.629 24.5015 112.418 24.5015C112.207 24.5015 111.997 24.5431 111.802 24.624C111.607 24.7048 111.428 24.8233 111.279 24.9728ZM78.6662 90.0189C65.7976 102.884 44.8532 102.878 31.9798 90.0092C19.1113 77.1407 19.1113 56.2011 31.9798 43.3325C38.3594 36.953 46.7507 33.6232 55.2723 33.6232C60.5398 33.6232 65.8588 34.8962 70.7819 37.5082C73.6846 39.0428 76.3393 41.0063 78.6565 43.3325C79.244 43.9199 79.8072 44.5267 80.3464 45.1511C81.9537 47.0115 83.345 49.048 84.4937 51.2217C91.3304 64.1047 88.9871 79.6963 78.6662 90.0189ZM86.2721 47.8372C86.2206 47.7535 86.1627 47.673 86.1095 47.5893C85.9744 47.3704 85.8279 47.158 85.6879 46.9423C84.9056 45.737 84.0499 44.5809 83.1258 43.4806C82.9584 43.281 82.7958 43.0766 82.6236 42.8803C82.0797 42.2575 81.5196 41.6475 80.9306 41.0585C80.3415 40.4694 79.7284 39.9078 79.1055 39.3638C78.9092 39.1916 78.708 39.0307 78.5085 38.8633C77.845 38.3079 77.1622 37.7759 76.4613 37.2684C76.0059 36.9401 75.5408 36.6246 75.0708 36.3189C74.8455 36.1724 74.6218 36.0195 74.3933 35.8779C74.3144 35.8296 74.2404 35.7749 74.1615 35.7266L78.4119 31.473L84.4664 37.5275L90.5192 43.5804L86.2673 47.8339L86.2721 47.8372Z" fill="black"/>
<rect x="0.144531" y="-5.05484" width="186.112" height="6" transform="rotate(45 0.144531 -5.05484)" fill="black"/>
<rect x="0.144531" y="-5.05484" width="186.112" height="6" transform="rotate(45 0.144531 -5.05484)" stroke="white" stroke-width="2"/>
</g>
<defs>
<clipPath id="clip0_35436_66">
<rect width="128" height="128" rx="12" fill="white"/>
</clipPath>
</defs>
</svg>
