<svg width="128" height="128" viewBox="0 0 128 128" fill="none" xmlns="http://www.w3.org/2000/svg">
<path fill-rule="evenodd" clip-rule="evenodd" d="M64.6957 7.48381V28.4256C72.1192 24.1398 79.5337 19.8551 86.9572 15.5688C88.6452 14.5941 90.6177 14.5941 92.3057 15.5688C99.9645 19.9908 107.621 24.4153 115.28 28.8371C116.966 29.8101 117.955 31.5186 117.954 33.4656C117.949 49.1563 117.862 64.8428 117.713 80.5328L119.126 81.0246C121.578 81.8781 123.877 83.3286 123.877 86.2328V104.009C123.877 118.641 107.065 127.542 94.9787 118.756H15.8705C15.4204 118.756 14.9888 118.578 14.6705 118.259C14.3523 117.941 14.1735 117.509 14.1735 117.059V53.3858H5.81624C4.16474 53.3858 3.50524 51.2676 4.82174 50.3138L61.5702 6.14481C62.635 5.31756 64.6957 5.84781 64.6957 7.48381ZM89.3982 22.4778C85.181 22.4778 81.7612 25.8973 81.7612 30.1148C81.7612 34.3323 85.1807 37.7518 89.3982 37.7518C93.6157 37.7518 97.0352 34.3323 97.0352 30.1148C97.0352 25.8973 93.6157 22.4778 89.3982 22.4778ZM89.3982 25.8716C87.0545 25.8716 85.1552 27.7708 85.1552 30.1146C85.1552 32.4583 87.0545 34.3576 89.3982 34.3576C91.742 34.3576 93.6412 32.4583 93.6412 30.1146C93.6412 27.7708 91.742 25.8716 89.3982 25.8716ZM103.957 118.74V80.5083L93.2955 84.2198C92.4162 84.5261 90.825 85.0966 90.825 86.2328V104.009C90.825 111.512 96.5195 117.882 103.957 118.741V118.74ZM104.969 76.5731C105.185 76.4787 105.418 76.43 105.654 76.43C105.889 76.43 106.123 76.4787 106.338 76.5731L114.344 79.3598C114.487 64.0611 114.569 48.7653 114.574 33.4656C114.574 32.7303 114.234 32.1348 113.596 31.7671C105.934 27.3433 98.271 22.9226 90.609 18.4988C89.9877 18.1401 89.2757 18.1401 88.6542 18.4988C81.021 22.9061 73.393 27.3063 65.7595 31.7133C65.0667 32.1718 64.6957 32.5776 64.6957 33.4646V51.7288H96.406C96.6288 51.7288 96.8495 51.7727 97.0554 51.858C97.2613 51.9433 97.4484 52.0683 97.6059 52.2258C97.7635 52.3834 97.8885 52.5705 97.9738 52.7764C98.0591 52.9823 98.103 53.203 98.103 53.4258V78.9631L104.969 76.5728V76.5731ZM107.351 80.5083V118.74C114.788 117.882 120.483 111.511 120.483 104.009V86.2326C120.483 85.0963 118.892 84.5256 118.013 84.2196L107.351 80.5081L107.351 80.5083ZM94.709 80.1448V55.1231H64.6957V62.0546H82.233C82.6831 62.0546 83.1147 62.2333 83.4329 62.5516C83.7512 62.8698 83.93 63.3015 83.93 63.7516V106.733C83.93 107.183 83.7512 107.615 83.4329 107.933C83.1147 108.252 82.6831 108.43 82.233 108.43H64.6957V115.362H91.4242C88.928 112.243 87.431 108.293 87.431 104.009V86.2326C87.431 83.3283 89.7297 81.8781 92.1817 81.0243L94.709 80.1448ZM61.3017 75.6038H17.5677V115.362H29.2342V79.5648C29.2342 79.1147 29.413 78.6831 29.7313 78.3648C30.0495 78.0466 30.4812 77.8678 30.9312 77.8678H49.6735C50.1236 77.8678 50.5552 78.0466 50.8735 78.3648C51.1917 78.6831 51.3705 79.1147 51.3705 79.5648V115.362H61.3017V75.6038ZM17.5677 72.2098H61.3017V70.0616H17.5677V72.2098ZM17.5677 66.6676H61.3017V10.6521L10.7577 49.9916H15.8707C16.3208 49.9916 16.7525 50.1703 17.0707 50.4886C17.389 50.8068 17.5677 51.2385 17.5677 51.6886V66.6676ZM64.6957 72.2098H80.536V65.4488H64.6957V72.2098ZM64.6957 94.8813H80.536V86.9396H64.6957V94.8813ZM80.536 98.2753H64.6957V105.036H80.536V98.2753ZM64.6957 83.5456H80.536V75.6038H64.6957V83.5456ZM55.3777 20.3361L26.885 42.5128C25.6042 43.5083 26.331 45.5466 27.9257 45.5478L56.4647 45.5488C57.4395 45.5366 58.15 44.7801 58.1617 43.8518V21.6393C58.1617 20.1866 56.4637 19.4286 55.3777 20.3361ZM54.7677 42.1548V25.1091L32.8672 42.1548H54.7677ZM47.9767 115.362V81.2618H32.6285V115.362H47.9767ZM42.6212 51.1708C42.3984 51.1708 42.1777 51.2147 41.9718 51.3C41.7659 51.3853 41.5789 51.5103 41.4213 51.6679C41.2637 51.8254 41.1387 52.0125 41.0534 52.2184C40.9681 52.4243 40.9242 52.645 40.9242 52.8678V62.8016C40.9242 63.0244 40.9681 63.2451 41.0534 63.451C41.1387 63.6569 41.2637 63.8439 41.4213 64.0015C41.5789 64.1591 41.7659 64.2841 41.9718 64.3694C42.1777 64.4547 42.3984 64.4986 42.6212 64.4986H55.366C55.8161 64.4986 56.2477 64.3198 56.566 64.0015C56.8842 63.6833 57.063 63.2516 57.063 62.8016V52.8678C57.063 52.645 57.0191 52.4243 56.9338 52.2184C56.8485 52.0125 56.7235 51.8254 56.566 51.6679C56.4084 51.5103 56.2213 51.3853 56.0154 51.3C55.8095 51.2147 55.5888 51.1708 55.366 51.1708H42.6212ZM53.669 54.5648H44.3182V61.1046H53.669V54.5648ZM23.504 51.1708C23.2811 51.1708 23.0605 51.2147 22.8546 51.3C22.6487 51.3853 22.4616 51.5103 22.304 51.6679C22.1465 51.8254 22.0214 52.0125 21.9362 52.2184C21.8509 52.4243 21.807 52.645 21.807 52.8678V62.8016C21.807 63.2516 21.9858 63.6833 22.304 64.0015C22.6223 64.3198 23.0539 64.4986 23.504 64.4986H36.2487C36.6988 64.4986 37.1305 64.3198 37.4487 64.0015C37.767 63.6833 37.9457 63.2516 37.9457 62.8016V52.8678C37.9457 52.645 37.9018 52.4243 37.8166 52.2184C37.7313 52.0125 37.6063 51.8254 37.4487 51.6679C37.2911 51.5103 37.104 51.3853 36.8982 51.3C36.6923 51.2147 36.4716 51.1708 36.2487 51.1708H23.504ZM34.5517 54.5648H25.201V61.1046H34.5517V54.5648Z" fill="black"/>
</svg>
