<svg width="120" height="120" viewBox="0 0 120 120" fill="none" xmlns="http://www.w3.org/2000/svg">
<path d="M57.4341 8.89912C58.9201 7.69912 61.0801 7.69912 62.5661 8.89912L94.0001 34.2651V50.4711C96.7801 50.9111 99.4561 51.6511 102 52.6611V40.7211L113.488 49.9911C113.897 50.321 114.367 50.5671 114.871 50.7155C115.375 50.8638 115.903 50.9114 116.425 50.8556C116.947 50.7998 117.454 50.6416 117.915 50.3902C118.376 50.1388 118.783 49.7989 119.113 49.3901C119.443 48.9813 119.689 48.5115 119.837 48.0076C119.986 47.5037 120.033 46.9755 119.978 46.4531C119.922 45.9308 119.764 45.4246 119.512 44.9634C119.261 44.5022 118.921 44.095 118.512 43.7651L67.5901 2.67312C65.4387 0.943119 62.7608 0 60.0001 0C57.2394 0 54.5615 0.943119 52.4101 2.67312L1.48811 43.7651C1.07931 44.095 0.739482 44.5022 0.488036 44.9634C0.236589 45.4246 0.0784468 45.9308 0.0226388 46.4531C-0.0331693 46.9755 0.0144494 47.5037 0.162776 48.0076C0.311103 48.5115 0.557234 48.9813 0.887114 49.3901C1.217 49.7989 1.62417 50.1388 2.08538 50.3902C2.54659 50.6416 3.05281 50.7998 3.57514 50.8556C4.09747 50.9114 4.62568 50.8638 5.12961 50.7155C5.63353 50.5671 6.10331 50.321 6.51211 49.9911L18.0001 40.7211V88.1411C18.0001 94.7551 23.4401 99.9991 30.0001 99.9991H51.9341C51.071 97.4028 50.4923 94.7204 50.2081 91.9991H30.0001C27.7241 91.9991 26.0001 90.2051 26.0001 88.1391V34.2651L57.4341 8.89912Z" fill="black"/>
<path d="M92 73.999C92 72.9382 91.5786 71.9207 90.8284 71.1706C90.0783 70.4204 89.0609 69.999 88 69.999C86.9391 69.999 85.9217 70.4204 85.1716 71.1706C84.4214 71.9207 84 72.9382 84 73.999V87.999C84 89.0599 84.4214 90.0773 85.1716 90.8275C85.9217 91.5776 86.9391 91.999 88 91.999H100C101.061 91.999 102.078 91.5776 102.828 90.8275C103.579 90.0773 104 89.0599 104 87.999C104 86.9382 103.579 85.9207 102.828 85.1706C102.078 84.4204 101.061 83.999 100 83.999H92V73.999Z" fill="black"/>
<path fill-rule="evenodd" clip-rule="evenodd" d="M88 55.999C105.674 55.999 120 70.325 120 87.999C120 105.673 105.674 119.999 88 119.999C70.326 119.999 56 105.673 56 87.999C56 70.325 70.326 55.999 88 55.999ZM112 87.999C112 74.745 101.254 63.999 88 63.999C74.746 63.999 64 74.745 64 87.999C64 101.253 74.746 111.999 88 111.999C101.254 111.999 112 101.253 112 87.999Z" fill="black"/>
</svg>
