<svg width="128" height="128" viewBox="0 0 128 128" fill="none" xmlns="http://www.w3.org/2000/svg">
<path d="M117.697 0H10.2783C4.61012 0 0 4.61012 0 10.2783V117.722C0 123.365 4.61012 127.975 10.2783 127.975H117.722C123.39 127.975 128 123.365 128 117.697V10.2783C127.975 4.61012 123.365 0 117.697 0ZM60.4353 120.871H10.2783C8.54005 120.871 7.1293 119.46 7.1293 117.722V10.2783C7.1293 8.54005 8.54005 7.12931 10.2783 7.12931H60.4353V120.871ZM117.722 120.846H67.5395V7.10411H117.697C119.435 7.10411 120.846 8.51486 120.846 10.2531V117.697H120.871C120.871 119.435 119.46 120.846 117.722 120.846Z" fill="black"/>
<path d="M47.5371 66.7332C46.1515 65.3477 43.9095 65.3477 42.4987 66.7332L37.3344 71.8976V47.4866C37.3344 45.5217 35.7473 43.9346 33.7823 43.9346C31.8174 43.9346 30.2303 45.5217 30.2303 47.4866V71.8976L25.0659 66.7584C23.6804 65.3729 21.4383 65.3729 20.0276 66.7584C18.642 68.144 18.642 70.3861 20.0276 71.7968L31.2631 83.0072C31.9685 83.7126 32.8754 84.0401 33.7823 84.0401C34.6892 84.0401 35.5961 83.6874 36.3015 83.0072L47.5371 71.7716C48.9227 70.3861 48.9227 68.144 47.5371 66.7332ZM107.947 56.203L96.7117 44.9674C96.0063 44.2621 95.0994 43.9346 94.1925 43.9346C93.2856 43.9346 92.3787 44.2873 91.6733 44.9674L80.4377 56.203C79.0522 57.5886 79.0522 59.8307 80.4377 61.2414C81.8233 62.627 84.0653 62.627 85.4761 61.2414L90.6404 56.0771V80.488C90.6404 82.453 92.2275 84.0401 94.1925 84.0401C96.1574 84.0401 97.7445 82.453 97.7445 80.488V56.0771L102.909 61.2414C104.294 62.627 106.537 62.627 107.947 61.2414C109.333 59.8558 109.333 57.6138 107.947 56.203Z" fill="black"/>
</svg>
