<svg width="128" height="128" viewBox="0 0 128 128" fill="none" xmlns="http://www.w3.org/2000/svg">
<path d="M64.0469 75.4373V16M64.0469 75.4373C55.2043 75.4373 48.0365 83.1936 48.0365 89.6213C48.0365 99.0773 55.2043 113.261 64.0469 113.261C72.8885 113.261 80.0571 99.0773 80.0571 89.6213C80.0571 83.1936 72.8885 75.4373 64.0469 75.4373Z" stroke="black" stroke-width="8" stroke-linecap="square" stroke-linejoin="round"/>
<path d="M26.6182 117.318V53.7631M26.6182 53.7631H37.3677L42.5396 16.5739C42.5848 16.2488 42.3355 15.9583 42.0112 15.9583H11.2577C10.9331 15.9583 10.6836 16.2493 10.7294 16.5747L15.9572 53.7631H26.6182Z" stroke="black" stroke-width="8"/>
<path d="M96.4053 117.295L95.9792 75.4001M95.9792 75.4001V16.0496C95.9792 16.0124 96.0133 15.9856 96.048 15.9979C101.308 17.8604 112.271 22.6516 114.051 36.9827L117.394 75.3414C117.396 75.3729 117.372 75.4001 117.34 75.4001H95.9792Z" stroke="black" stroke-width="8"/>
</svg>
