<svg width="128" height="128" viewBox="0 0 128 128" fill="none" xmlns="http://www.w3.org/2000/svg">
<path d="M29.8668 25.6C31.1468 25.6 32 24.7467 32 23.4667V12.8H34.1333C35.4132 12.8 36.2665 11.9467 36.2665 10.6667C36.2665 9.38675 35.4132 8.5335 34.1333 8.5335H32V2.1335C32 0.85325 31.1468 0 29.8668 0C28.5868 0 27.7335 0.85325 27.7335 2.13325V23.4665C27.7332 24.7467 28.5868 25.6 29.8668 25.6ZM93.8668 100.267C95.1468 100.267 96 99.4135 96 98.1335V64H102.4C103.253 64 104.107 63.5732 104.533 62.72C104.746 61.8668 104.533 61.0132 103.893 60.3732L71.68 31.5732C66.1332 26.6665 57.8133 26.6665 52.2668 31.5732L20.0535 60.3732C19.4135 61.0132 19.2003 62.08 19.4135 62.72C19.6267 63.36 20.4802 64 21.3335 64H27.7335V98.1332C27.7335 99.4132 28.5868 100.267 29.8668 100.267L93.8668 100.267ZM26.88 59.7332L55.04 34.56C58.88 31.1468 64.8533 31.1468 68.6933 34.56L96.8532 59.7332H93.8665C92.5865 59.7332 91.7333 60.5865 91.7333 61.8665V96H32V61.8667C32 60.5868 31.1468 59.7335 29.8668 59.7335H26.88V59.7332ZM125.867 96H119.467V93.8668C119.467 92.5868 118.614 91.7335 117.334 91.7335C116.054 91.7335 115.2 92.5868 115.2 93.8668V96H104.534C103.254 96 102.4 96.8532 102.4 98.1332C102.4 99.4132 103.254 100.267 104.534 100.267H125.867C127.147 100.267 128 99.4132 128 98.1332C128 96.8532 127.147 96 125.867 96ZM23.4667 115.2H21.3335C20.0535 115.2 19.2003 116.053 19.2003 117.333C19.2003 118.613 20.0535 119.466 21.3335 119.466H23.4667C24.7467 119.466 25.6 118.613 25.6 117.333C25.6 116.053 24.7467 115.2 23.4667 115.2ZM34.1333 115.2H32C30.72 115.2 29.8668 116.053 29.8668 117.333C29.8668 118.613 30.72 119.466 32 119.466H34.1333C35.4132 119.466 36.2665 118.613 36.2665 117.333C36.2665 116.053 35.4132 115.2 34.1333 115.2ZM44.8 115.2H42.6668C41.3868 115.2 40.5335 116.053 40.5335 117.333C40.5335 118.613 41.3868 119.466 42.6668 119.466H44.8C46.08 119.466 46.9333 118.613 46.9333 117.333C46.9333 116.053 46.08 115.2 44.8 115.2ZM55.4668 115.2H53.3335C52.0535 115.2 51.2002 116.053 51.2002 117.333C51.2002 118.613 52.0535 119.466 53.3335 119.466H55.4668C56.7467 119.466 57.6 118.613 57.6 117.333C57.6 116.053 56.7467 115.2 55.4668 115.2ZM66.1332 115.2H64C62.72 115.2 61.8667 116.053 61.8667 117.333C61.8667 118.613 62.72 119.466 64 119.466H66.1332C67.4132 119.466 68.2665 118.613 68.2665 117.333C68.2665 116.053 67.4132 115.2 66.1332 115.2ZM76.8 115.2H74.6667C73.3867 115.2 72.5335 116.053 72.5335 117.333C72.5335 118.613 73.3867 119.466 74.6667 119.466H76.8C78.08 119.466 78.9333 118.613 78.9333 117.333C78.9333 116.053 78.08 115.2 76.8 115.2ZM87.4668 115.2H85.3335C84.0535 115.2 83.2002 116.053 83.2002 117.333C83.2002 118.613 84.0535 119.466 85.3335 119.466H87.4668C88.7467 119.466 89.6 118.613 89.6 117.333C89.6 116.053 88.7467 115.2 87.4668 115.2ZM98.1332 115.2H96C94.72 115.2 93.8668 116.053 93.8668 117.333C93.8668 118.613 94.72 119.466 96 119.466H98.1332C99.4132 119.466 100.267 118.613 100.267 117.333C100.267 116.053 99.4132 115.2 98.1332 115.2ZM108.8 115.2H106.667C105.387 115.2 104.534 116.053 104.534 117.333C104.534 118.613 105.387 119.466 106.667 119.466H108.8C110.08 119.466 110.933 118.613 110.933 117.333C110.933 116.053 110.08 115.2 108.8 115.2ZM125.867 115.2H117.334C116.054 115.2 115.2 116.053 115.2 117.333V125.867C115.2 127.146 116.054 128 117.334 128C118.614 128 119.467 127.146 119.467 125.867V119.466H125.867C127.147 119.466 128 118.613 128 117.333C128 116.053 127.147 115.2 125.867 115.2ZM106.667 12.8H108.8C110.08 12.8 110.933 11.9467 110.933 10.6667C110.933 9.38675 110.08 8.5335 108.8 8.5335H106.667C105.387 8.5335 104.534 9.38675 104.534 10.6667C104.534 11.9467 105.387 12.8 106.667 12.8ZM96 12.8H98.1332C99.4132 12.8 100.267 11.9467 100.267 10.6667C100.267 9.38675 99.4132 8.5335 98.1332 8.5335H96C94.72 8.5335 93.8668 9.38675 93.8668 10.6667C93.8668 11.9467 94.72 12.8 96 12.8ZM85.3333 12.8H87.4665C88.7465 12.8 89.5997 11.9467 89.5997 10.6667C89.5997 9.38675 88.7465 8.5335 87.4665 8.5335H85.3333C84.0533 8.5335 83.2 9.38675 83.2 10.6667C83.2 11.9467 84.0533 12.8 85.3333 12.8ZM74.6667 12.8H76.8C78.08 12.8 78.9333 11.9467 78.9333 10.6667C78.9333 9.38675 78.08 8.5335 76.8 8.5335H74.6667C73.3867 8.5335 72.5335 9.38675 72.5335 10.6667C72.5335 11.9467 73.3867 12.8 74.6667 12.8ZM64 12.8H66.1332C67.4132 12.8 68.2665 11.9467 68.2665 10.6667C68.2665 9.38675 67.4132 8.5335 66.1332 8.5335H64C62.72 8.5335 61.8667 9.38675 61.8667 10.6667C61.8667 11.9467 62.72 12.8 64 12.8ZM53.3332 12.8H55.4665C56.7465 12.8 57.5998 11.9467 57.5998 10.6667C57.5998 9.38675 56.7465 8.5335 55.4665 8.5335H53.3332C52.0532 8.5335 51.2 9.38675 51.2 10.6667C51.2 11.9467 52.0532 12.8 53.3332 12.8ZM42.6668 12.8H44.8C46.08 12.8 46.9333 11.9467 46.9333 10.6667C46.9333 9.38675 46.08 8.5335 44.8 8.5335H42.6668C41.3868 8.5335 40.5335 9.38675 40.5335 10.6667C40.5335 11.9467 41.3868 12.8 42.6668 12.8ZM21.3333 12.8C22.6133 12.8 23.4665 11.9467 23.4665 10.6667C23.4665 9.38675 22.6133 8.5335 21.3333 8.5335H19.2C17.92 8.5335 17.0667 9.38675 17.0667 10.6667C17.0667 11.9467 17.92 12.8 19.2 12.8H21.3333ZM117.333 12.8H125.867C127.146 12.8 128 11.9467 128 10.6667C128 9.38675 127.146 8.5335 125.867 8.5335H119.466V2.1335C119.466 0.8535 118.613 0.00025 117.333 0.00025C116.053 0.00025 115.2 0.85325 115.2 2.13325V10.6665C115.2 11.9467 116.053 12.8 117.333 12.8ZM10.6667 0C9.38675 0 8.5335 0.85325 8.5335 2.13325V8.53325H2.1335C0.85325 8.53325 0 9.38675 0 10.6667C0 11.9467 0.85325 12.8 2.13325 12.8H10.6665C11.9465 12.8 12.7998 11.9467 12.7998 10.6667V2.13325C12.8 0.85325 11.9467 0 10.6667 0ZM10.6667 19.2C9.38675 19.2 8.5335 20.0532 8.5335 21.3333V23.4665C8.5335 24.7465 9.38675 25.5998 10.6667 25.5998C11.9467 25.5998 12.8 24.7465 12.8 23.4665V21.3333C12.8 20.0532 11.9467 19.2 10.6667 19.2ZM10.6667 29.8668C9.38675 29.8668 8.5335 30.72 8.5335 32V34.1333C8.5335 35.4132 9.38675 36.2665 10.6667 36.2665C11.9467 36.2665 12.8 35.4132 12.8 34.1333V32C12.8 30.72 11.9467 29.8668 10.6667 29.8668ZM10.6667 40.5332C9.38675 40.5332 8.5335 41.3865 8.5335 42.6665V44.7998C8.5335 46.0798 9.38675 46.933 10.6667 46.933C11.9467 46.933 12.8 46.08 12.8 44.8V42.6668C12.8 41.3868 11.9467 40.5332 10.6667 40.5332ZM10.6667 51.2C9.38675 51.2 8.5335 52.0532 8.5335 53.3332V55.4665C8.5335 56.7465 9.38675 57.5998 10.6667 57.5998C11.9467 57.5998 12.8 56.7465 12.8 55.4665V53.3332C12.8 52.0532 11.9467 51.2 10.6667 51.2ZM10.6667 61.8667C9.38675 61.8667 8.5335 62.72 8.5335 64V66.1332C8.5335 67.4132 9.38675 68.2665 10.6667 68.2665C11.9467 68.2665 12.8 67.4132 12.8 66.1332V64C12.8 62.72 11.9467 61.8667 10.6667 61.8667ZM10.6667 72.5332C9.38675 72.5332 8.5335 73.3865 8.5335 74.6665V76.7998C8.5335 78.0798 9.38675 78.933 10.6667 78.933C11.9467 78.933 12.8 78.08 12.8 76.8V74.6667C12.8 73.3867 11.9467 72.5332 10.6667 72.5332ZM10.6667 83.2C9.38675 83.2 8.5335 84.0533 8.5335 85.3333V87.4665C8.5335 88.7465 9.38675 89.5997 10.6667 89.5997C11.9467 89.5997 12.8 88.7465 12.8 87.4665V85.3333C12.8 84.0533 11.9467 83.2 10.6667 83.2ZM10.6667 93.8668C9.38675 93.8668 8.5335 94.72 8.5335 96V98.1332C8.5335 99.4132 9.38675 100.267 10.6667 100.267C11.9467 100.267 12.8 99.4132 12.8 98.1332V96C12.8 94.72 11.9467 93.8668 10.6667 93.8668ZM10.6667 104.533C9.38675 104.533 8.5335 105.386 8.5335 106.666V108.8C8.5335 110.08 9.38675 110.933 10.6667 110.933C11.9467 110.933 12.8 110.08 12.8 108.8V106.667C12.8 105.387 11.9467 104.533 10.6667 104.533ZM117.333 23.4667C118.613 23.4667 119.466 22.6135 119.466 21.3335V19.2C119.466 17.92 118.613 17.0667 117.333 17.0667C116.053 17.0667 115.2 17.92 115.2 19.2V21.3333C115.2 22.6133 116.053 23.4667 117.333 23.4667ZM117.333 34.1333C118.613 34.1333 119.466 33.28 119.466 32V29.8668C119.466 28.5868 118.613 27.7335 117.333 27.7335C116.053 27.7335 115.2 28.5868 115.2 29.8668V32C115.2 33.28 116.053 34.1333 117.333 34.1333ZM117.333 44.8C118.613 44.8 119.466 43.9468 119.466 42.6668V40.5335C119.466 39.2535 118.613 38.4002 117.333 38.4002C116.053 38.4002 115.2 39.2535 115.2 40.5335V42.6668C115.2 43.9468 116.053 44.8 117.333 44.8ZM117.333 55.4668C118.613 55.4668 119.466 54.6135 119.466 53.3335V51.2C119.466 49.92 118.613 49.0667 117.333 49.0667C116.053 49.0667 115.2 49.92 115.2 51.2V53.3332C115.2 54.6132 116.053 55.4668 117.333 55.4668ZM117.333 66.1332C118.613 66.1332 119.466 65.28 119.466 64V61.8667C119.466 60.5868 118.613 59.7335 117.333 59.7335C116.053 59.7335 115.2 60.5868 115.2 61.8667V64C115.2 65.28 116.053 66.1332 117.333 66.1332ZM117.333 76.8C118.613 76.8 119.466 75.9467 119.466 74.6667V72.5335C119.466 71.2535 118.613 70.4003 117.333 70.4003C116.053 70.4003 115.2 71.2535 115.2 72.5335V74.6667C115.2 75.9467 116.053 76.8 117.333 76.8ZM117.333 87.4668C118.613 87.4668 119.466 86.6135 119.466 85.3335V83.2C119.466 81.92 118.613 81.0667 117.333 81.0667C116.053 81.0667 115.2 81.92 115.2 83.2V85.3333C115.2 86.6133 116.053 87.4668 117.333 87.4668ZM117.333 110.933C118.613 110.933 119.466 110.08 119.466 108.8V106.667C119.466 105.387 118.613 104.534 117.333 104.534C116.053 104.534 115.2 105.387 115.2 106.667V108.8C115.2 110.08 116.053 110.933 117.333 110.933ZM10.6667 115.2H2.13325C0.85325 115.2 0 116.053 0 117.333C0 118.613 0.85325 119.466 2.13325 119.466H8.53325V125.867C8.53325 127.146 9.3865 128 10.6665 128C11.9465 128 12.7998 127.146 12.7998 125.867V117.333C12.8 116.053 11.9467 115.2 10.6667 115.2Z" fill="black"/>
</svg>
